<svg xmlns="http://www.w3.org/2000/svg"  viewBox="0 0 100 100" width="100px" height="100px"><path fill="#c7ede6" d="M87.215,56.71C88.35,54.555,89,52.105,89,49.5c0-6.621-4.159-12.257-10.001-14.478 C78.999,35.015,79,35.008,79,35c0-11.598-9.402-21-21-21c-9.784,0-17.981,6.701-20.313,15.757C36.211,29.272,34.638,29,33,29 c-7.692,0-14.023,5.793-14.89,13.252C12.906,43.353,9,47.969,9,53.5C9,59.851,14.149,65,20.5,65c0.177,0,0.352-0.012,0.526-0.022 C21.022,65.153,21,65.324,21,65.5C21,76.822,30.178,86,41.5,86c6.437,0,12.175-2.972,15.934-7.614C59.612,80.611,62.64,82,66,82 c4.65,0,8.674-2.65,10.666-6.518C77.718,75.817,78.837,76,80,76c6.075,0,11-4.925,11-11C91,61.689,89.53,58.727,87.215,56.71z"/><path fill="#fff" d="M15.405,51H5.5C5.224,51,5,50.776,5,50.5S5.224,50,5.5,50h9.905c0.276,0,0.5,0.224,0.5,0.5 S15.682,51,15.405,51z"/><path fill="#fff" d="M18.5,51h-1c-0.276,0-0.5-0.224-0.5-0.5s0.224-0.5,0.5-0.5h1c0.276,0,0.5,0.224,0.5,0.5 S18.777,51,18.5,51z"/><path fill="#fff" d="M23.491,53H14.5c-0.276,0-0.5-0.224-0.5-0.5s0.224-0.5,0.5-0.5h8.991c0.276,0,0.5,0.224,0.5,0.5 S23.767,53,23.491,53z"/><path fill="#fff" d="M12.5,53h-1c-0.276,0-0.5-0.224-0.5-0.5s0.224-0.5,0.5-0.5h1c0.276,0,0.5,0.224,0.5,0.5 S12.777,53,12.5,53z"/><path fill="#fff" d="M9.5,53h-2C7.224,53,7,52.776,7,52.5S7.224,52,7.5,52h2c0.276,0,0.5,0.224,0.5,0.5S9.777,53,9.5,53 z"/><path fill="#fff" d="M15.5,55h-2c-0.276,0-0.5-0.224-0.5-0.5s0.224-0.5,0.5-0.5h2c0.276,0,0.5,0.224,0.5,0.5 S15.776,55,15.5,55z"/><path fill="#fff" d="M18.5,46c-0.177,0-0.823,0-1,0c-0.276,0-0.5,0.224-0.5,0.5c0,0.276,0.224,0.5,0.5,0.5 c0.177,0,0.823,0,1,0c0.276,0,0.5-0.224,0.5-0.5C19,46.224,18.776,46,18.5,46z"/><path fill="#fff" d="M18.5,48c-0.177,0-4.823,0-5,0c-0.276,0-0.5,0.224-0.5,0.5c0,0.276,0.224,0.5,0.5,0.5 c0.177,0,4.823,0,5,0c0.276,0,0.5-0.224,0.5-0.5C19,48.224,18.776,48,18.5,48z"/><path fill="#fff" d="M23.5,50c-0.177,0-2.823,0-3,0c-0.276,0-0.5,0.224-0.5,0.5c0,0.276,0.224,0.5,0.5,0.5 c0.177,0,2.823,0,3,0c0.276,0,0.5-0.224,0.5-0.5C24,50.224,23.776,50,23.5,50z"/><path fill="#fff" d="M84.5,46h-10c-0.276,0-0.5-0.224-0.5-0.5s0.224-0.5,0.5-0.5h10c0.276,0,0.5,0.224,0.5,0.5 S84.776,46,84.5,46z"/><path fill="#fff" d="M88.5,46h-2c-0.276,0-0.5-0.224-0.5-0.5s0.224-0.5,0.5-0.5h2c0.276,0,0.5,0.224,0.5,0.5 S88.776,46,88.5,46z"/><path fill="#fff" d="M93.5,48h-10c-0.276,0-0.5-0.224-0.5-0.5s0.224-0.5,0.5-0.5h10c0.276,0,0.5,0.224,0.5,0.5 S93.777,48,93.5,48z"/><path fill="#fff" d="M81.5,48h-1c-0.276,0-0.5-0.224-0.5-0.5s0.224-0.5,0.5-0.5h1c0.276,0,0.5,0.224,0.5,0.5 S81.776,48,81.5,48z"/><path fill="#fff" d="M78.375,48H76.5c-0.276,0-0.5-0.224-0.5-0.5s0.224-0.5,0.5-0.5h1.875c0.276,0,0.5,0.224,0.5,0.5 S78.651,48,78.375,48z"/><path fill="#fff" d="M87.5,44h-5c-0.276,0-0.5-0.224-0.5-0.5s0.224-0.5,0.5-0.5h5c0.276,0,0.5,0.224,0.5,0.5 S87.777,44,87.5,44z"/><path fill="#fff" d="M84.5,50h-2c-0.276,0-0.5-0.224-0.5-0.5s0.224-0.5,0.5-0.5h2c0.276,0,0.5,0.224,0.5,0.5 S84.776,50,84.5,50z"/><path fill="#fdfcef" d="M79.375,29.5c0,0,3.64,0,6.125,0S90,27.485,90,25c0-2.333-1.782-4.229-4.055-4.455 C85.967,20.364,86,20.187,86,20c0-2.485-2.015-4.5-4.5-4.5c-1.438,0-2.703,0.686-3.527,1.736C77.833,14.6,75.671,12.5,73,12.5 c-2.761,0-5,2.239-5,5c0,0.446,0.077,0.87,0.187,1.282c-0.642-0.777-1.6-1.282-2.687-1.282c-1.781,0-3.234,1.335-3.455,3.055 C61.864,20.533,61.687,20.5,61.5,20.5c-2.485,0-4.5,2.015-4.5,4.5s2.015,4.5,4.5,4.5s9.5,0,9.5,0h5.375V30h3V29.5z"/><path fill="#472b29" d="M73,12c-3.033,0-5.5,2.467-5.5,5.5c0,0.016,0,0.031,0,0.047C66.898,17.192,66.21,17,65.5,17 c-1.831,0-3.411,1.261-3.858,3.005C61.595,20.002,61.548,20,61.5,20c-2.757,0-5,2.243-5,5s2.243,5,5,5h14.875 c0.276,0,0.5-0.224,0.5-0.5s-0.224-0.5-0.5-0.5H61.5c-2.206,0-4-1.794-4-4s1.794-4,4-4c0.117,0,0.23,0.017,0.343,0.032 l0.141,0.019c0.021,0.003,0.041,0.004,0.062,0.004c0.246,0,0.462-0.185,0.495-0.437C62.732,19.125,64.004,18,65.5,18 c0.885,0,1.723,0.401,2.301,1.1c0.098,0.118,0.241,0.182,0.386,0.182c0.078,0,0.156-0.018,0.228-0.056 c0.209-0.107,0.314-0.346,0.254-0.573c-0.116-0.436-0.17-0.802-0.17-1.153c0-2.481,2.019-4.5,4.5-4.5 c2.381,0,4.347,1.872,4.474,4.263c0.011,0.208,0.15,0.387,0.349,0.45c0.05,0.016,0.101,0.024,0.152,0.024 c0.15,0,0.296-0.069,0.392-0.192C79.138,16.563,80.279,16,81.5,16c2.206,0,4,1.794,4,4c0,0.117-0.017,0.23-0.032,0.343 l-0.019,0.141c-0.016,0.134,0.022,0.268,0.106,0.373c0.084,0.105,0.207,0.172,0.34,0.185C87.951,21.247,89.5,22.949,89.5,25 c0,2.206-1.794,4-4,4h-6.125c-0.276,0-0.5,0.224-0.5,0.5s0.224,0.5,0.5,0.5H85.5c2.757,0,5-2.243,5-5 c0-2.397-1.689-4.413-4.003-4.877C86.499,20.082,86.5,20.041,86.5,20c0-2.757-2.243-5-5-5c-1.176,0-2.293,0.416-3.183,1.164 C77.719,13.76,75.555,12,73,12L73,12z"/><path fill="#472b29" d="M71.5,19c-1.403,0-2.609,0.999-2.913,2.341C68.22,21.119,67.801,21,67.375,21 c-1.202,0-2.198,0.897-2.353,2.068C64.819,23.022,64.626,23,64.438,23c-1.529,0-2.811,1.2-2.918,2.732 C61.51,25.87,61.614,25.99,61.751,26c0.006,0,0.012,0,0.018,0c0.13,0,0.24-0.101,0.249-0.232c0.089-1.271,1.151-2.268,2.419-2.268 c0.229,0,0.47,0.042,0.738,0.127c0.022,0.007,0.045,0.01,0.067,0.01c0.055,0,0.11-0.02,0.156-0.054 c0.064-0.047,0.102-0.129,0.102-0.209c0-1.034,0.841-1.875,1.875-1.875c0.447,0,0.885,0.168,1.231,0.473 c0.047,0.041,0.106,0.063,0.165,0.063c0.032,0,0.063-0.006,0.093-0.019c0.088-0.035,0.148-0.117,0.155-0.212 c0.102-1.292,1.191-2.305,2.479-2.305c0.208,0,0.425,0.034,0.682,0.107c0.023,0.007,0.047,0.01,0.07,0.01 c0.109,0,0.207-0.073,0.239-0.182c0.038-0.133-0.039-0.271-0.172-0.309C72.017,19.04,71.756,19,71.5,19L71.5,19z"/><path fill="#472b29" d="M85.383,20.5c-1.326,0-2.508,0.897-2.874,2.182c-0.038,0.133,0.039,0.271,0.172,0.309 C82.705,22.997,82.728,23,82.75,23c0.109,0,0.209-0.072,0.24-0.182C83.295,21.748,84.279,21,85.383,21 c0.117,0,0.23,0.014,0.342,0.029c0.012,0.002,0.023,0.003,0.035,0.003c0.121,0,0.229-0.092,0.246-0.217 c0.019-0.137-0.077-0.263-0.214-0.281C85.658,20.516,85.522,20.5,85.383,20.5L85.383,20.5z"/><path fill="#fdf5a9" d="M33.5,45c0,0-3,0.196-3-3s2.739-3.076,4.5-3.5c-1.891-0.489-4.272-1.293-4.272-3.967 s1.834-5.28,5.519-5.933c3.685-0.652,5.764,1.943,6.253,3.9c0-3.424,5.065-10,12.924-10s12.12,5,12.12,9.946 c0,3.489-2.334,6.223-3.043,7.054c2.421-0.758,5,1.628,5,4s-1.712,3.717-3,4c0.734,0.299,2.483,0.989,2.483,2.888 c0,0-35.983,6.612-37.538-1.165c-0.288-1.44-0.163-2.723,0.489-2.494C32.111,46.79,33.5,45,33.5,45z"/><path fill="#fdfcef" d="M31.935,46.728c0.75,0,1.103,2.757,1.174,3.272c-0.098-1.576-0.016-2.745,0.538-2.571 s0.995,1.902,0.995,2.687c-0.065-1.367,0.043-2.276,0.646-2.08c0.57,0.185,0.984,2.051,0.984,2.735c0,0-0.196-2.367,0.554-2.172 s1.141,3.034,1.141,3.034s-0.424-2.787,0.457-2.412c0.88,0.375,1.076,3.017,1.076,3.017s-0.196-2.563,0.652-2.439 c0.848,0.124,0.946,2.08,0.946,2.83c0,0,0.015-2.421,0.602-2.237c0.587,0.183,0.88,1.647,0.88,2.727l0.906,22.533l-8.658-6.629 L31.935,46.728z"/><path fill="#d6213f" d="M42.174,74.348l1.207,0.946l-0.849-22.296c0,0,0.074-2.154-0.855-2.498 c-0.44-0.136-0.557,1.203-0.557,2.51S42.174,74.348,42.174,74.348z"/><path fill="#d6213f" d="M39.919,72.912l1.2,1.114l-1.638-21.989c0,0-0.181-2.461-1.111-2.805 c-0.668-0.009-0.403,1.228-0.403,2.534S39.919,72.912,39.919,72.912z"/><path fill="#d6213f" d="M37.365,71.065l1.32,1.066l-2.408-21.206c0,0-0.181-2.461-1.111-2.805 c-0.668-0.009-0.403,1.228-0.403,2.534C34.764,51.96,37.365,71.065,37.365,71.065z"/><path fill="#d6213f" d="M34.712,69.247l1.438,0.94l-3.126-20.534c0,0-0.181-2.461-1.111-2.805 c-0.668-0.009-0.403,1.228-0.403,2.534S34.712,69.247,34.712,69.247z"/><path fill="#d6213f" d="M49.5,47.5L49.5,47.5c-2.209,0-4-1.791-4-4v-1c0-0.552,0.448-1,1-1h6c0.552,0,1,0.448,1,1v1 C53.5,45.709,51.709,47.5,49.5,47.5z"/><circle cx="58" cy="39" r="2.5" fill="#3b3634"/><circle cx="41" cy="39" r="2.5" fill="#3b3634"/><circle cx="42" cy="38" r="1" fill="#fdfcef"/><circle cx="59" cy="38" r="1" fill="#fdfcef"/><path fill="#fdfcef" d="M46.524,52.448c-0.013-1.079-0.892-1.948-1.972-1.948c-1.12,0-2.015,0.932-1.97,2.051L43.5,75.5 l3.3-0.5L46.524,52.448z"/><path fill="#fdfcef" d="M51.652,50.128L51.652,50.128c-1.014,0.116-1.779,0.977-1.773,1.998L50,74.666l3.228-0.552 c0,0,0.337-21.682,0.342-22.255C53.58,50.822,52.681,50.011,51.652,50.128z"/><path fill="#fdfcef" d="M59.762,49.224c-1.243,0.046-2.246,1.034-2.309,2.276l-1.127,22.163l3.269-0.229l1.804-22.483 C61.485,49.999,60.717,49.189,59.762,49.224z"/><path fill="#d6213f" d="M48.1,50.396c-0.914,0.058-1.618,0.829-1.592,1.745L46.8,75l3.2-0.334l-0.115-22.58 C49.893,51.111,49.073,50.335,48.1,50.396z"/><path fill="#d6213f" d="M55.876,49.671c-1.276,0.047-2.292,1.085-2.312,2.362l-0.336,22.08l3.098-0.45l1.151-22.339 C57.54,50.407,56.795,49.637,55.876,49.671z"/><path fill="#d6213f" d="M63.667,49c-1.199,0-2.197,0.922-2.293,2.117l-1.779,22.317l3.193-0.41l2.336-22.406 C65.215,49.753,64.537,49,63.667,49z"/><path fill="#fdfcef" d="M62.788,73.024l2.313-22.188c0.127-1.223,1.158-2.151,2.387-2.151l0,0 c0.91,0,1.613,0.801,1.494,1.703L66.09,72.473"/><path fill="#472b29" d="M43.5,75.75c-0.134,0-0.244-0.105-0.25-0.24l-0.918-22.949c-0.024-0.609,0.195-1.188,0.618-1.628 c0.423-0.44,0.991-0.683,1.602-0.683c1.211,0,2.207,0.984,2.222,2.195l0.276,22.552c0.002,0.138-0.108,0.251-0.247,0.253 c-0.001,0-0.002,0-0.003,0c-0.137,0-0.248-0.11-0.25-0.247l-0.276-22.552c-0.011-0.938-0.783-1.701-1.722-1.701 c-0.473,0-0.913,0.188-1.241,0.529c-0.328,0.341-0.498,0.79-0.479,1.262l0.918,22.95c0.005,0.138-0.103,0.254-0.24,0.26 C43.507,75.75,43.503,75.75,43.5,75.75z"/><path fill="#472b29" d="M62.788,73.274c-0.009,0-0.018,0-0.026-0.001c-0.137-0.014-0.236-0.137-0.223-0.274l2.313-22.188 c0.142-1.354,1.275-2.375,2.637-2.375c0.506,0,0.987,0.218,1.32,0.598c0.334,0.38,0.487,0.886,0.422,1.387l-2.894,22.085 c-0.019,0.136-0.146,0.234-0.28,0.215c-0.137-0.018-0.233-0.144-0.216-0.281l2.894-22.085c0.047-0.359-0.063-0.721-0.302-0.993 c-0.238-0.272-0.583-0.428-0.944-0.428c-1.104,0-2.024,0.829-2.139,1.927L63.037,73.05C63.023,73.178,62.915,73.274,62.788,73.274z"/><path fill="#472b29" d="M59.595,73.684c-0.007,0-0.013,0-0.02-0.001c-0.138-0.011-0.24-0.131-0.229-0.269l1.78-22.316 c0.104-1.316,1.221-2.347,2.541-2.347c0.485,0,0.95,0.207,1.274,0.567c0.325,0.36,0.482,0.844,0.433,1.326l-0.064,0.611 c-0.015,0.137-0.143,0.242-0.275,0.222c-0.137-0.015-0.236-0.138-0.223-0.275l0.064-0.611c0.036-0.341-0.076-0.684-0.306-0.939 c-0.23-0.255-0.56-0.401-0.903-0.401c-1.062,0-1.959,0.829-2.043,1.887l-1.78,22.317C59.834,73.584,59.724,73.684,59.595,73.684z"/><path fill="#472b29" d="M56.326,73.913c-0.004,0-0.009,0-0.013,0c-0.138-0.007-0.244-0.125-0.237-0.262l1.127-22.163 c0.071-1.382,1.167-2.462,2.551-2.514c0.526-0.016,1.036,0.189,1.398,0.571c0.362,0.383,0.544,0.903,0.496,1.428l-0.094,1.029 c-0.013,0.137-0.116,0.237-0.271,0.227c-0.138-0.013-0.239-0.134-0.227-0.271l0.094-1.029c0.034-0.382-0.097-0.761-0.361-1.039 c-0.264-0.278-0.632-0.442-1.018-0.416c-1.122,0.042-2.012,0.918-2.068,2.039l-1.127,22.163 C56.569,73.81,56.459,73.913,56.326,73.913z"/><path fill="#472b29" d="M53.229,74.363c-0.001,0-0.003,0-0.004,0c-0.138-0.002-0.248-0.116-0.246-0.254l0.336-22.081 c0.021-1.411,1.143-2.556,2.553-2.608c0.479-0.017,1.003,0.18,1.357,0.546c0.354,0.365,0.536,0.866,0.501,1.374l-0.076,1.111 c-0.009,0.138-0.129,0.245-0.267,0.232c-0.138-0.01-0.241-0.129-0.231-0.267l0.076-1.111c0.025-0.367-0.107-0.728-0.362-0.992 s-0.594-0.412-0.98-0.394c-1.144,0.042-2.053,0.971-2.07,2.116l-0.336,22.081C53.477,74.254,53.365,74.363,53.229,74.363z"/><path fill="#472b29" d="M50,74.916c-0.138,0-0.249-0.111-0.25-0.249l-0.121-22.54c-0.006-1.151,0.853-2.118,1.995-2.248 c0.559-0.063,1.124,0.117,1.543,0.495c0.421,0.379,0.658,0.92,0.653,1.486l-0.01,1.05c-0.001,0.137-0.113,0.248-0.25,0.248 c-0.001,0-0.002,0-0.003,0c-0.138-0.001-0.248-0.114-0.247-0.252l0.01-1.049c0.004-0.423-0.174-0.828-0.487-1.11 c-0.313-0.282-0.729-0.417-1.152-0.369c-0.889,0.101-1.556,0.853-1.552,1.749l0.121,22.539C50.251,74.802,50.14,74.915,50,74.916 L50,74.916z"/><path fill="#472b29" d="M49.879,53.125c-0.001,0-0.001,0-0.002,0c-0.139-0.001-0.249-0.114-0.248-0.252l0.007-0.79 c0.003-0.401-0.155-0.774-0.447-1.05s-0.673-0.413-1.072-0.388c-0.784,0.049-1.38,0.703-1.357,1.488l0.021,0.735 c0.004,0.138-0.105,0.253-0.243,0.257c-0.146,0.005-0.252-0.105-0.257-0.243l-0.021-0.734c-0.03-1.056,0.771-1.935,1.826-2.001 c0.529-0.032,1.061,0.157,1.447,0.524c0.388,0.367,0.607,0.883,0.604,1.417l-0.007,0.79C50.128,53.015,50.016,53.125,49.879,53.125 z"/><path fill="#472b29" d="M49.5,47.75c-2.344,0-4.25-1.907-4.25-4.25v-1c0-0.689,0.561-1.25,1.25-1.25h6 c0.689,0,1.25,0.561,1.25,1.25v1C53.75,45.843,51.844,47.75,49.5,47.75z M46.5,41.75c-0.413,0-0.75,0.336-0.75,0.75v1 c0,2.068,1.683,3.75,3.75,3.75s3.75-1.682,3.75-3.75v-1c0-0.414-0.337-0.75-0.75-0.75H46.5z"/><path fill="#472b29" d="M58,41.75c-1.517,0-2.75-1.233-2.75-2.75s1.233-2.75,2.75-2.75s2.75,1.233,2.75,2.75 S59.517,41.75,58,41.75z M58,36.75c-1.24,0-2.25,1.009-2.25,2.25s1.01,2.25,2.25,2.25s2.25-1.009,2.25-2.25S59.24,36.75,58,36.75z"/><path fill="#472b29" d="M41,41.75c-1.517,0-2.75-1.233-2.75-2.75s1.233-2.75,2.75-2.75s2.75,1.233,2.75,2.75 S42.517,41.75,41,41.75z M41,36.75c-1.24,0-2.25,1.009-2.25,2.25s1.01,2.25,2.25,2.25s2.25-1.009,2.25-2.25S42.24,36.75,41,36.75z"/><path fill="#472b29" d="M36.15,70.437c-0.122,0-0.229-0.089-0.247-0.213l-3.042-20.187c-0.021-0.136,0.073-0.264,0.21-0.284 c0.145-0.025,0.264,0.074,0.284,0.21l3.042,20.187c0.021,0.136-0.073,0.264-0.21,0.284C36.175,70.436,36.162,70.437,36.15,70.437z"/><path fill="#472b29" d="M37.365,71.315c-0.124,0-0.231-0.092-0.248-0.218l-2.724-20.948 c-0.018-0.137,0.079-0.262,0.216-0.28c0.134-0.021,0.262,0.079,0.28,0.216l2.724,20.948c0.018,0.137-0.079,0.262-0.216,0.28 C37.387,71.314,37.376,71.315,37.365,71.315z"/><path fill="#472b29" d="M38.685,72.269c-0.126,0-0.234-0.094-0.248-0.222L36.023,50.8c-0.016-0.137,0.083-0.261,0.22-0.277 c0.145-0.015,0.262,0.084,0.276,0.22l2.413,21.247c0.016,0.137-0.083,0.261-0.22,0.277C38.703,72.269,38.693,72.269,38.685,72.269z"/><path fill="#472b29" d="M39.92,73.162c-0.128,0-0.237-0.098-0.249-0.227l-1.952-21.277 c-0.013-0.138,0.089-0.259,0.227-0.272c0.131-0.014,0.259,0.089,0.271,0.226l1.952,21.277c0.013,0.138-0.089,0.259-0.227,0.272 C39.935,73.161,39.928,73.162,39.92,73.162z"/><path fill="#472b29" d="M41.213,74.097c-0.129,0-0.239-0.099-0.249-0.23l-1.713-21.607 c-0.011-0.137,0.092-0.258,0.229-0.269c0.14-0.007,0.259,0.091,0.269,0.229l1.713,21.607c0.011,0.137-0.092,0.258-0.229,0.269 C41.226,74.096,41.22,74.097,41.213,74.097z"/><path fill="#472b29" d="M42.346,74.916c-0.132,0-0.242-0.103-0.25-0.236l-1.248-22.035 c-0.008-0.138,0.098-0.256,0.236-0.264c0.112-0.015,0.256,0.098,0.264,0.235l1.248,22.035c0.008,0.138-0.098,0.256-0.236,0.264 C42.355,74.916,42.351,74.916,42.346,74.916z"/><path fill="#472b29" d="M42.58,53.37c-0.138,0-0.25-0.112-0.25-0.25c0-1.187-0.336-2.373-0.704-2.488 c-0.121,0.11-0.271,1.048-0.278,2c-0.001,0.138-0.112,0.249-0.25,0.249h-0.001c-0.138,0-0.249-0.112-0.249-0.25 c0-1.192-0.229-2.51-0.731-2.583c-0.039-0.007-0.064,0.002-0.097,0.031c-0.277,0.259-0.325,1.395-0.271,2.127 c0.001,0.005,0.001,0.01,0.001,0.015c0.011,0.138-0.093,0.257-0.23,0.268c-0.136,0.005-0.258-0.093-0.268-0.23v0l0,0v0 c-0.001-0.003-0.001-0.007-0.001-0.011c-0.078-1.034-0.416-2.578-0.924-2.794c-0.209,0.072-0.273,0.955-0.132,1.999 c0.008,0.055,0.015,0.105,0.021,0.148c0.019,0.136-0.076,0.262-0.212,0.282c-0.145,0.015-0.263-0.075-0.283-0.21 c-0.006-0.04-0.013-0.087-0.021-0.141c-0.188-1.254-0.598-2.601-0.938-2.689c-0.216,0.156-0.291,0.94-0.258,1.666 c0.011,0.108,0.017,0.199,0.017,0.264c0,0.134-0.105,0.244-0.239,0.25c-0.004,0-0.008,0-0.011,0c-0.13,0-0.238-0.099-0.249-0.229 c-0.007-0.081-0.015-0.196-0.021-0.334c-0.091-0.81-0.473-2.081-0.792-2.184c-0.084-0.028-0.11-0.007-0.122,0 c-0.098,0.074-0.249,0.388-0.205,1.633c0.006,0.077,0.009,0.147,0.009,0.209c0,0.136-0.108,0.247-0.244,0.25 c-0.132,0.011-0.249-0.103-0.256-0.238c-0.003-0.077-0.007-0.151-0.009-0.224c-0.066-0.84-0.486-2.135-0.812-2.237l0,0 c-0.046,0-0.348,0.144-0.213,2.316c0.008,0.134-0.092,0.251-0.226,0.264c-0.136,0.017-0.254-0.082-0.272-0.214 c-0.413-3.022-0.921-3.056-0.926-3.056c-0.138,0-0.25-0.112-0.25-0.25s0.112-0.25,0.25-0.25c0.409,0,0.734,0.417,0.999,1.313 c0.076-0.295,0.184-0.434,0.293-0.519c0.138-0.11,0.315-0.139,0.495-0.081c0.337,0.105,0.606,0.548,0.801,1.073 c0.064-0.176,0.151-0.302,0.262-0.386c0.113-0.085,0.306-0.166,0.58-0.079c0.337,0.109,0.596,0.561,0.782,1.087 c0.061-0.179,0.144-0.327,0.256-0.422c0.137-0.114,0.309-0.151,0.487-0.105c0.352,0.091,0.624,0.546,0.828,1.097 c0.055-0.179,0.134-0.324,0.247-0.412c0.089-0.069,0.277-0.17,0.557-0.051c0.402,0.171,0.677,0.687,0.862,1.259 c0.067-0.224,0.163-0.415,0.295-0.539c0.142-0.133,0.319-0.188,0.51-0.161c0.472,0.069,0.756,0.509,0.924,1.068 c0.068-0.178,0.155-0.32,0.263-0.399c0.118-0.086,0.261-0.111,0.399-0.067c0.774,0.242,1.056,1.906,1.056,2.965 C42.83,53.258,42.718,53.37,42.58,53.37z"/><path fill="#472b29" d="M43.553,75.992c-0.146,0-0.29-0.046-0.41-0.133l-8.5-6.145c-0.148-0.107-0.249-0.269-0.279-0.449 c-0.414-2.403-3.202-18.636-3.412-19.964c-0.224-1.431-0.15-2.375,0.219-2.807c0.149-0.174,0.348-0.276,0.565-0.291l0.852-0.939 c-1.196-0.455-2.574-1.526-2.587-3.56c-0.01-1.618,1.048-2.804,2.913-3.363c-1.348-0.604-2.685-1.687-2.685-3.808 c0-2.48,1.554-5.65,5.932-6.425c0.414-0.073,0.824-0.11,1.218-0.11c2.316,0,4.008,1.269,4.935,2.791 C43.551,27.07,48.396,22,55.424,22c8.285,0,12.62,5.255,12.62,10.446c0,2.796-1.383,5.083-2.386,6.417 C67.92,38.998,70,41.188,70,43.5c0,2.047-1.127,3.37-2.266,4.035c0.843,0.497,1.749,1.347,1.749,2.853l-2.895,22.126 c-0.042,0.315-0.29,0.563-0.605,0.604l-22.342,2.868C43.612,75.99,43.582,75.992,43.553,75.992z M35.694,68.747l8.044,5.815 l21.532-2.764l2.818-21.501c-0.006-1.083-0.998-1.585-1.928-1.963l-0.596-0.243c-0.284-0.116-0.46-0.403-0.434-0.708 c0.026-0.306,0.248-0.559,0.547-0.624l0.628-0.138C67.229,46.418,68.6,45.42,68.6,43.5c0-1.84-2.121-3.676-3.831-3.141 l-0.661,0.205c-0.296,0.093-0.619-0.022-0.792-0.283c-0.171-0.26-0.149-0.602,0.052-0.839l0.45-0.528 c0.699-0.82,2.826-3.314,2.826-6.467c0-4.495-3.854-9.045-11.22-9.045c-7.481,0-12.023,6.32-12.023,9.1 c0,0.354-0.264,0.652-0.615,0.695l-0.395,0.048c-0.344,0.042-0.679-0.183-0.764-0.525c-0.4-1.6-1.9-3.321-4.249-3.321 c-0.313,0-0.64,0.03-0.974,0.089c-3.525,0.624-4.775,3.108-4.775,5.046c0,1.579,0.975,2.418,3.596,3.096 c0.334,0.086,0.555,0.402,0.521,0.745l-0.038,0.394c-0.033,0.344-0.313,0.612-0.657,0.631c-1.102,0.062-3.662,0.41-3.65,2.296 c0.012,2.015,2.158,2.402,2.25,2.418l0.36,0.061c0.252,0.042,0.461,0.219,0.544,0.461c0.084,0.242,0.029,0.509-0.143,0.699 l-1.811,1.999c-0.059,0.064-0.129,0.118-0.207,0.157l-0.167,0.083c-0.001,0-0.002,0.001-0.003,0.001 c-0.011,0.238-0.013,0.73,0.109,1.51C32.536,50.36,35.148,65.573,35.694,68.747z"/><g><path fill="#fdfcef" d="M33.5,77.5c0,0,1.567,0,3.5,0s3.5-1.567,3.5-3.5c0-1.781-1.335-3.234-3.055-3.455 C37.473,70.366,37.5,70.187,37.5,70c0-1.933-1.567-3.5-3.5-3.5c-1.032,0-1.95,0.455-2.59,1.165 c-0.384-1.808-1.987-3.165-3.91-3.165c-2.209,0-4,1.791-4,4c0,0.191,0.03,0.374,0.056,0.558C23.128,68.714,22.592,68.5,22,68.5 c-1.228,0-2.245,0.887-2.455,2.055C19.366,70.527,19.187,70.5,19,70.5c-1.933,0-3.5,1.567-3.5,3.5s1.567,3.5,3.5,3.5s7.5,0,7.5,0 V78h7V77.5z"/><path fill="#472b29" d="M35.25,73C35.112,73,35,72.888,35,72.75c0-1.223,0.995-2.218,2.218-2.218 c0.034,0.009,0.737-0.001,1.244,0.136c0.133,0.036,0.212,0.173,0.176,0.306c-0.036,0.134-0.173,0.213-0.306,0.176 c-0.444-0.12-1.1-0.12-1.113-0.118c-0.948,0-1.719,0.771-1.719,1.718C35.5,72.888,35.388,73,35.25,73z"/><circle cx="28.5" cy="77.5" r=".5" fill="#472b29"/><path fill="#472b29" d="M37,78h-3.5c-0.276,0-0.5-0.224-0.5-0.5s0.224-0.5,0.5-0.5H37c1.654,0,3-1.346,3-3 c0-1.496-1.125-2.768-2.618-2.959c-0.134-0.018-0.255-0.088-0.336-0.196s-0.115-0.244-0.094-0.377C36.975,70.314,37,70.16,37,70 c0-1.654-1.346-3-3-3c-0.85,0-1.638,0.355-2.219,1c-0.125,0.139-0.321,0.198-0.5,0.148c-0.182-0.049-0.321-0.195-0.36-0.379 C30.58,66.165,29.141,65,27.5,65c-1.93,0-3.5,1.57-3.5,3.5c0,0.143,0.021,0.28,0.041,0.418c0.029,0.203-0.063,0.438-0.242,0.54 c-0.179,0.102-0.396,0.118-0.556-0.01C22.878,69.155,22.449,69,22,69c-0.966,0-1.792,0.691-1.963,1.644 c-0.048,0.267-0.296,0.446-0.569,0.405C19.314,71.025,19.16,71,19,71c-1.654,0-3,1.346-3,3s1.346,3,3,3h7.5 c0.276,0,0.5,0.224,0.5,0.5S26.776,78,26.5,78H19c-2.206,0-4-1.794-4-4s1.794-4,4-4c0.059,0,0.116,0.002,0.174,0.006 C19.588,68.82,20.711,68,22,68c0.349,0,0.689,0.061,1.011,0.18C23.176,65.847,25.126,64,27.5,64c1.831,0,3.466,1.127,4.153,2.774 C32.333,66.276,33.155,66,34,66c2.206,0,4,1.794,4,4c0,0.048-0.001,0.095-0.004,0.142C39.739,70.59,41,72.169,41,74 C41,76.206,39.206,78,37,78z"/><path fill="#472b29" d="M31.5,77c-0.159,0-0.841,0-1,0c-0.276,0-0.5,0.224-0.5,0.5c0,0.276,0.224,0.5,0.5,0.5 c0.159,0,0.841,0,1,0c0.276,0,0.5-0.224,0.5-0.5C32,77.224,31.776,77,31.5,77z"/></g><path fill="#472b29" d="M63.703,35.696c-0.04,0-0.081-0.01-0.118-0.03c-0.122-0.065-0.167-0.217-0.102-0.339 c0.516-0.96,0.789-1.893,0.81-2.774c0.003-0.136,0.114-0.244,0.25-0.244c0.002,0,0.004,0,0.006,0 c0.138,0.003,0.247,0.118,0.244,0.256c-0.023,0.96-0.315,1.969-0.87,3C63.878,35.648,63.792,35.696,63.703,35.696z M46.391,30.587 c-0.048,0-0.096-0.014-0.139-0.042c-0.115-0.077-0.146-0.231-0.069-0.347c1.593-2.392,4.856-4.948,9.241-4.948 c3.93,0,7.04,1.499,8.535,4.112c0.068,0.12,0.027,0.272-0.093,0.341s-0.273,0.027-0.341-0.093c-1.403-2.453-4.356-3.86-8.102-3.86 c-4.188,0-7.305,2.441-8.825,4.726C46.551,30.548,46.472,30.587,46.391,30.587z"/><path fill="#472b29" d="M65.851,44.821c-0.109,0-0.209-0.071-0.24-0.181c-0.038-0.133,0.039-0.271,0.172-0.309 c0.041-0.014,0.468-0.176,0.468-0.831c0-0.323-0.539-0.887-0.848-0.887c-0.138,0-0.25-0.112-0.25-0.25s0.112-0.25,0.25-0.25 c0.579,0,1.348,0.791,1.348,1.387c0,1.062-0.822,1.309-0.831,1.312C65.896,44.818,65.873,44.821,65.851,44.821z M33.729,34.783 c-0.138,0-0.25-0.112-0.25-0.25c0-1.66,1.214-2.865,3.247-3.225c0.228-0.04,0.447-0.061,0.652-0.061 c1.136,0,1.779,0.643,2.12,1.182c0.073,0.117,0.038,0.271-0.078,0.345c-0.117,0.075-0.271,0.039-0.346-0.078 c-0.272-0.433-0.788-0.949-1.696-0.949c-0.177,0-0.366,0.018-0.564,0.053c-1.775,0.314-2.835,1.335-2.835,2.732 C33.979,34.671,33.866,34.783,33.729,34.783z"/></svg>